<?xml version="1.0" standalone="no"?>
<!DOCTYPE svg PUBLIC "-//W3C//DTD SVG 20010904//EN"
 "http://www.w3.org/TR/2001/REC-SVG-20010904/DTD/svg10.dtd">
<svg version="1.0" xmlns="http://www.w3.org/2000/svg"
 width="3840.000000pt" height="2160.000000pt" viewBox="0 0 3840.000000 2160.000000"
 preserveAspectRatio="xMidYMid meet">
<metadata>
Created by potrace 1.16, written by Peter Selinger 2001-2019
</metadata>
<g transform="translate(0.000000,2160.000000) scale(0.100000,-0.100000)"
fill="#000000" stroke="none">
<path d="M5288 19181 c-54 -34 -93 -105 -108 -197 -6 -37 -10 -1020 -10 -2659
l0 -2600 -2341 -1350 c-1287 -742 -2365 -1370 -2396 -1395 -69 -55 -117 -120
-146 -197 l-22 -58 -3 -2660 c-2 -1853 1 -2680 8 -2725 6 -36 24 -93 40 -126
49 -101 122 -159 401 -320 134 -77 1150 -664 2258 -1303 1107 -640 2037 -1172
2067 -1182 68 -24 204 -26 271 -3 26 9 1067 604 2313 1322 2102 1213 2269
1312 2332 1373 79 77 112 140 128 244 7 49 10 1708 8 5560 -3 5209 -4 5493
-21 5541 -27 82 -91 169 -162 221 -85 63 -4342 2516 -4392 2531 -22 7 -72 12
-110 12 -59 0 -76 -4 -115 -29z m1997 -6672 c1155 -666 2120 -1228 2145 -1248
105 -88 137 -201 86 -305 -15 -31 -48 -74 -75 -98 -45 -41 -3797 -2211 -3902
-2257 -151 -67 -282 -18 -340 125 l-24 59 -3 2468 c-1 1357 1 2467 6 2467 4 0
953 -545 2107 -1211z"/>
<path d="M13731 14629 c-65 -12 -115 -50 -142 -106 l-24 -48 0 -4520 0 -4520
25 -50 c27 -54 70 -89 132 -106 56 -14 2435 -6 2573 10 404 45 663 105 927
215 883 368 1346 1229 1482 2756 33 370 38 543 43 1473 5 928 -2 1374 -28
1726 -133 1849 -689 2771 -1844 3061 -260 66 -476 95 -821 110 -268 12 -2262
11 -2323 -1z m2318 -1519 c283 -30 444 -133 551 -353 105 -218 150 -474 170
-971 13 -312 12 -3371 0 -3656 -33 -743 -162 -1091 -455 -1225 -137 -63 -293
-84 -637 -85 l-178 0 0 3150 0 3150 228 0 c125 0 269 -5 321 -10z"/>
<path d="M20669 12365 c-853 -122 -1246 -811 -1329 -2335 -13 -241 -13 -2268
0 -2515 92 -1713 589 -2387 1715 -2324 561 31 920 284 1075 758 16 51 35 121
42 157 l12 65 75 -3 75 -3 82 -353 c45 -195 90 -372 100 -394 10 -21 35 -57
57 -79 71 -70 56 -69 822 -69 756 0 758 0 810 62 63 75 62 107 -27 598 l-73
405 -5 2912 -5 2911 -30 44 c-19 27 -48 52 -80 68 l-50 25 -760 0 c-609 0
-768 -3 -798 -13 -50 -18 -93 -56 -120 -106 -21 -39 -22 -55 -25 -324 l-3
-283 -65 3 -65 3 -34 102 c-39 117 -71 183 -128 268 -143 212 -358 344 -663
406 -131 27 -465 35 -605 14z m1155 -1285 c38 -6 88 -19 112 -29 53 -24 128
-92 160 -146 62 -107 105 -302 123 -563 15 -204 15 -2843 0 -3041 -24 -339
-85 -538 -196 -643 -15 -15 -55 -39 -88 -55 -57 -27 -67 -28 -205 -28 -144 0
-146 0 -212 33 -107 52 -167 137 -212 298 -62 220 -60 155 -64 1814 -4 1610
-2 1707 43 1923 28 137 55 209 106 285 86 130 232 181 433 152z"/>
<path d="M29949 12365 c-855 -122 -1249 -818 -1329 -2350 -13 -249 -13 -2224
0 -2486 55 -1100 282 -1765 712 -2089 231 -174 500 -251 878 -251 339 0 576
59 788 197 219 143 382 393 445 684 l22 101 75 -3 74 -3 83 -355 c45 -195 90
-372 99 -393 22 -48 71 -98 120 -123 37 -18 69 -19 764 -19 l725 0 44 25 c57
32 91 93 91 162 0 26 -33 225 -72 441 l-73 392 -5 2915 c-5 2781 -6 2917 -23
2955 -25 55 -62 92 -116 112 -43 17 -103 18 -801 18 -604 0 -763 -3 -793 -13
-50 -18 -93 -56 -120 -106 -21 -39 -22 -55 -25 -324 l-4 -283 -65 3 -66 3 -19
70 c-11 38 -37 107 -58 152 -142 304 -377 478 -746 554 -131 27 -465 35 -605
14z m1156 -1285 c226 -33 328 -183 383 -565 16 -110 17 -255 17 -1690 0 -1435
-1 -1580 -17 -1690 -37 -254 -88 -387 -184 -474 -81 -74 -153 -94 -317 -89
-107 3 -129 7 -179 30 -142 66 -220 219 -265 518 -15 104 -17 264 -21 1610 -2
1012 0 1539 8 1630 38 482 144 679 385 719 70 12 110 12 190 1z"/>
<path d="M28055 12313 c-16 -9 -337 -236 -712 -505 -632 -453 -684 -488 -722
-488 l-41 0 0 380 c0 426 -4 462 -57 521 -69 77 -40 74 -838 74 -661 0 -713
-1 -757 -18 -65 -25 -113 -81 -128 -148 -8 -40 -10 -903 -8 -3379 3 -3226 4
-3326 22 -3360 26 -49 45 -69 91 -94 40 -21 42 -21 825 -21 l785 0 42 23 c24
12 55 41 70 64 l28 42 3 2015 2 2016 748 535 c410 294 766 554 790 578 24 24
53 64 65 90 22 47 22 48 22 812 l0 765 -23 41 c-13 22 -37 48 -52 57 -36 21
-116 21 -155 0z"/>
<path d="M34115 12290 c-87 -13 -140 -51 -170 -122 -13 -32 -15 -111 -15 -565
0 -492 2 -531 19 -568 22 -48 53 -78 106 -102 37 -17 94 -18 808 -21 477 -2
767 -6 767 -12 0 -5 -394 -1221 -875 -2701 -700 -2154 -875 -2702 -875 -2743
0 -68 32 -123 90 -156 l45 -25 1960 -3 c1410 -2 1973 0 2005 8 58 15 105 51
133 103 l22 42 0 535 0 535 -22 42 c-25 47 -71 84 -122 102 -24 8 -279 11
-899 11 -687 0 -863 3 -859 13 43 115 1739 5390 1744 5422 7 53 -15 120 -50
153 -12 12 -40 29 -62 39 -38 17 -132 18 -1870 19 -1006 1 -1853 -2 -1880 -6z"/>
</g>
</svg>
